# xmcd
#
# Track frame offsets:
#	150
#	14339
#	28856
#	42900
#	63057
#	76982
#	91151
#	105488
#	120311
#	135201
#	147017
#	161558
#	173596
#	187457
#	201542
#	215798
#	228892
#	240329
#
# Disc length: 3385 seconds
#
# Revision: 1
# Processed by: cddbd v1.5.1PL2 Copyright (c) Steve Scherf et al.
# Submitted via: audiograbber 1.83.01
#
DISCID=e80d3712
DTITLE=Ella Fitzgerald - Dedicated to You, cd3
DYEAR=2004
DGENRE=Blues
TTITLE0=A tisket-a tasket
TTITLE1=Crying my heart out for you
TTITLE2=Cow cow boogie
TTITLE3=Baby wont you please come home
TTITLE4=Darktown strutters ball
TTITLE5=Love youre just a laugh
TTITLE6=Time alone will telll
TTITLE7=Youll have to swing it
TTITLE8=Ill chace the blues away
TTITLE9=Tou cant be mine and somebody elses too
TTITLE10=Five o clock whistle
TTITLE11=When i get low i get high
TTITLE12=Cant help lovin dat man
TTITLE13=Three little words
TTITLE14=Deedle-de-dum
TTITLE15=Little white lies
TTITLE16=Mama, come home
TTITLE17=My last goodbye
EXTD=
EXTT0=
EXTT1=
EXTT2=
EXTT3=
EXTT4=
EXTT5=
EXTT6=
EXTT7=
EXTT8=
EXTT9=
EXTT10=
EXTT11=
EXTT12=
EXTT13=
EXTT14=
EXTT15=
EXTT16=
EXTT17=
PLAYORDER=
